# xmcd CD database file
#
# Track frame offsets:
#	150
#	12030
#	26184
#	39276
#	56272
#	72485
#	83100
#	96899
#	111234
#	129498
#	141089
#	152697
#	166489
#	178950
#	191579
#	202403
#	215972
#	227925
#	240251
#	264474
#	278029
#	290765
#	308618
#	321414
#
# Disc length: 4396 seconds
#
# Revision: 0
# Processed by: cddbd v1.5.2PL0 Copyright (c) Steve Scherf et al.
# Submitted via: CDex 1.51
#
DISCID=69112a18
DTITLE=Johnny Cash - I walk the line
DYEAR=2003
DGENRE=Country
TTITLE0=Ring of fire
TTITLE1=Orange blossom special
TTITLE2=Man in black
TTITLE3=(Ghost) riders in the sky
TTITLE4=Johnny 99
TTITLE5=Bonanza
TTITLE6=Even cowgirls get the blues
TTITLE7=Bull rider
TTITLE8=One piece at a time
TTITLE9=A thing called love
TTITLE10=The sons of Katie Elder
TTITLE11=It ain't me, Baby
TTITLE12=I walk the line
TTITLE13=Folson prison blues
TTITLE14=In the jailhouse now
TTITLE15=Tennessee flat-top box
TTITLE16=What is truth
TTITLE17=Understand your man
TTITLE18=Highway patrolman
TTITLE19=If I were a carpenter
TTITLE20=The one on the right is on the left
TTITLE21=The greatest cowboy of them all
TTITLE22=The last gunfighter ballad
TTITLE23=The Rebel - Johnny Yuma
EXTD=YEAR: 2003
EXTT0=
EXTT1=
EXTT2=
EXTT3=
EXTT4=
EXTT5=
EXTT6=
EXTT7=
EXTT8=
EXTT9=
EXTT10=
EXTT11=
EXTT12=
EXTT13=
EXTT14=
EXTT15=
EXTT16=
EXTT17=
EXTT18=
EXTT19=
EXTT20=
EXTT21=
EXTT22=
EXTT23=
PLAYORDER=
